<svg width="32" height="32" viewBox="0 0 32 32" fill="none" xmlns="http://www.w3.org/2000/svg">
  <path d="M29.8836 6.146L16.0566 29.6054C15.8791 29.8991 15.4106 29.9026 15.2291 29.6126L2.09921 6.14764C1.90172 5.83605 2.20307 5.45398 2.56873 5.58055L15.6336 10.0641C15.7668 10.1092 15.9113 10.1082 16.0435 10.062L29.4069 5.55921C29.7708 5.43358 30.0842 5.8146 29.8836 6.146Z" fill="url(#paint0_linear)"/>
  <path d="M22.7282 0.811279L10.2466 3.94033C10.046 3.99851 9.89689 4.16518 9.8719 4.36689L8.14034 16.7111C8.1121 16.9403 8.30497 17.1354 8.53276 17.0972L11.7335 16.5228C11.98 16.481 12.2005 16.7054 12.1409 16.9486L10.5292 23.4915C10.4669 23.7441 10.7242 23.9663 10.969 23.878L13.5912 23.0603C13.8361 22.9721 14.0934 23.1947 14.0307 23.4474L11.6912 33.4547C11.6001 33.8394 12.1127 34.1085 12.3699 33.7988L12.9457 33.0358L22.4568 14.1056C22.5998 13.8418 22.3623 13.5309 22.0632 13.6014L18.5727 14.4763C18.3126 14.5394 18.0679 14.3311 18.1148 14.0689L20.459 3.5575C20.5057 3.29535 20.2607 3.08725 20.001 3.15132L22.7282 0.811279Z" fill="url(#paint1_linear)"/>
  <defs>
    <linearGradient id="paint0_linear" x1="2.00004" y1="6" x2="30" y2="6" gradientUnits="userSpaceOnUse">
      <stop stop-color="#41D1FF"/>
      <stop offset="1" stop-color="#BD34FE"/>
    </linearGradient>
    <linearGradient id="paint1_linear" x1="12.7528" y1="2.99997" x2="12.7528" y2="33.9999" gradientUnits="userSpaceOnUse">
      <stop stop-color="#FFEA83"/>
      <stop offset="0.0833333" stop-color="#FFDD35"/>
      <stop offset="1" stop-color="#FFA800"/>
    </linearGradient>
  </defs>
</svg> 